<svg id="visual" viewBox="0 0 960 540" width="960" height="540" xmlns="http://www.w3.org/2000/svg" xmlns:xlink="http://www.w3.org/1999/xlink" version="1.1"><rect x="0" y="0" width="960" height="540" fill="#002233"></rect><path d="M0 389L22.8 400.8C45.7 412.7 91.3 436.3 137 429.3C182.7 422.3 228.3 384.7 274 384.8C319.7 385 365.3 423 411.2 439C457 455 503 449 548.8 430C594.7 411 640.3 379 686 379.2C731.7 379.3 777.3 411.7 823 423.3C868.7 435 914.3 426 937.2 421.5L960 417L960 541L937.2 541C914.3 541 868.7 541 823 541C777.3 541 731.7 541 686 541C640.3 541 594.7 541 548.8 541C503 541 457 541 411.2 541C365.3 541 319.7 541 274 541C228.3 541 182.7 541 137 541C91.3 541 45.7 541 22.8 541L0 541Z" fill="#0066FF" stroke-linecap="round" stroke-linejoin="miter"></path></svg>