<svg id="visual" viewBox="0 0 960 540" width="960" height="540" xmlns="http://www.w3.org/2000/svg" xmlns:xlink="http://www.w3.org/1999/xlink" version="1.1"><rect x="0" y="0" width="960" height="540" fill="#dae8e2"></rect><path d="M0 418L22.8 414.5C45.7 411 91.3 404 137 409.5C182.7 415 228.3 433 274 445.2C319.7 457.3 365.3 463.7 411.2 463.3C457 463 503 456 548.8 435.7C594.7 415.3 640.3 381.7 686 382.5C731.7 383.3 777.3 418.7 823 428.3C868.7 438 914.3 422 937.2 414L960 406L960 541L937.2 541C914.3 541 868.7 541 823 541C777.3 541 731.7 541 686 541C640.3 541 594.7 541 548.8 541C503 541 457 541 411.2 541C365.3 541 319.7 541 274 541C228.3 541 182.7 541 137 541C91.3 541 45.7 541 22.8 541L0 541Z" fill="#009473" stroke-linecap="round" stroke-linejoin="miter"></path></svg>